<svg xmlns="http://www.w3.org/2000/svg" xmlns:xlink="http://www.w3.org/1999/xlink" viewBox="0 0 48 48" version="1.1" width="48" height="48">
<g id="surface1">
<path style=" fill:#2196F3;" d="M 45 24 C 45 35.597656 35.597656 45 24 45 C 12.402344 45 3 35.597656 3 24 C 3 12.402344 12.402344 3 24 3 C 35.597656 3 45 12.402344 45 24 Z "/>
<path style=" fill:#FFFFFF;" d="M 22 22 L 26 22 L 26 33 L 22 33 Z "/>
<path style=" fill:#FFFFFF;" d="M 26.5 16.5 C 26.5 17.878906 25.378906 19 24 19 C 22.621094 19 21.5 17.878906 21.5 16.5 C 21.5 15.121094 22.621094 14 24 14 C 25.378906 14 26.5 15.121094 26.5 16.5 Z "/>
</g>
</svg>