<svg xmlns="http://www.w3.org/2000/svg" xmlns:xlink="http://www.w3.org/1999/xlink" viewBox="0 0 48 48" version="1.1" width="96" height="96">
<g id="surface1">
<path style=" fill:#9FA8DA;" d="M 39 21 L 28 8.167969 L 28 17.4375 C 30.070313 19.777344 32.828125 22.828125 35 25 C 38.535156 28.535156 43 28 43 28 Z "/>
<path style=" fill:#9FA8DA;" d="M 18 33.90625 C 16.683594 33.703125 14.371094 33.054688 13 31 C 12 29 12 27 12 27 C 12 27 12 24 9 24 C 9 24 11 28 9 28 C 8 28 7 27 7 22 C 7 22 5 23 5 26 C 5 28.894531 8.746094 34.582031 18 38.570313 Z "/>
<path style=" fill:#9FA8DA;" d="M 18 16.222656 C 17.921875 16.144531 17.84375 16.074219 17.761719 15.996094 L 16 15.996094 L 16 13.996094 L 14 13.996094 L 14 11.996094 L 12 11.996094 L 12 10.007813 C 11.996094 10.003906 11.992188 10 11.988281 9.996094 L 10 9.996094 L 10 8.066406 C 6 8 4 5 4 5 C 4 5 4 11 6 13 C 7 14 18 25 18 25 Z "/>
<path style=" fill:#FF3D00;" d="M 29 37 C 29 40.3125 26.3125 43 23 43 C 19.6875 43 17 40.3125 17 37 L 17 11 C 17 7.6875 19.6875 5 23 5 C 26.3125 5 29 7.6875 29 11 Z "/>
<path style=" fill:#FFFFFF;" d="M 22 33 L 24 33 L 24 39 L 22 39 Z "/>
<path style=" fill:#FFFFFF;" d="M 20 35 L 26 35 L 26 37 L 20 37 Z "/>
<path style=" fill:#DD2C00;" d="M 25 12 C 25 13.105469 24.105469 14 23 14 C 21.894531 14 21 13.105469 21 12 C 21 10.894531 21.894531 10 23 10 C 24.105469 10 25 10.894531 25 12 Z "/>
<path style=" fill:#7986CB;" d="M 28.605469 8.871094 C 28.855469 9.535156 29 10.25 29 11 L 29 15.546875 C 29.605469 16.234375 30.28125 16.996094 31 17.796875 L 31 11.664063 Z "/>
<path style=" fill:#7986CB;" d="M 15 22 C 15.785156 22.785156 16.480469 23.480469 17 24 L 17 17.828125 L 15 15.828125 Z "/>
<path style=" fill:#7986CB;" d="M 17 37 L 17 33.691406 C 16.378906 33.523438 15.679688 33.265625 15 32.863281 L 15 37 C 15 37.042969 15.007813 37.085938 15.007813 37.128906 C 15.675781 37.492188 16.371094 37.847656 17.117188 38.191406 C 17.039063 37.804688 17 37.40625 17 37 Z "/>
<path style=" fill:#C5CAE9;" d="M 41.863281 26.015625 C 40.617188 25.9375 38.335938 25.507813 36.414063 23.585938 C 34.773438 21.945313 32.773438 19.769531 31 17.796875 L 31 20.816406 C 32.363281 22.308594 33.769531 23.796875 35 25 C 38.710938 28.625 42.914063 28.007813 42.945313 28.007813 C 42.945313 28.007813 42.949219 28.003906 42.949219 28.003906 C 42.980469 28.003906 43 28 43 28 Z "/>
<path style=" fill:#C5CAE9;" d="M 15 13.996094 L 14 13.996094 L 14 12.003906 C 13.996094 12.003906 13.992188 12 13.992188 11.996094 L 12 11.996094 L 12 10.007813 C 11.996094 10.003906 11.992188 10 11.988281 9.996094 L 10 9.996094 L 10 8.066406 C 6 8 4 5 4 5 C 4 5 4.003906 6.378906 4.222656 8.03125 C 5.351563 8.910156 6.984375 9.804688 9.140625 10.015625 L 10.578125 11.410156 L 15 15.828125 Z "/>
</g>
</svg>