<svg xmlns="http://www.w3.org/2000/svg" xmlns:xlink="http://www.w3.org/1999/xlink" viewBox="0 0 48 48" version="1.1" width="48" height="48">
<g id="surface1">
<path style=" fill:#673AB7;" d="M 39.988281 12 C 39.988281 12 40.988281 35 24.171875 44 C 7.011719 35 8.011719 12 8.011719 12 C 16.007813 12 24 4 24 4 C 24 4 30.996094 12 39.988281 12 Z "/>
<path style=" fill:#D1C4E9;" d="M 28 18 C 28 20.210938 26.210938 22 24 22 C 21.789063 22 20 20.210938 20 18 C 20 15.789063 21.789063 14 24 14 C 26.210938 14 28 15.789063 28 18 "/>
<path style=" fill:#D1C4E9;" d="M 31 28 C 31 28 29.0625 24 24 24 C 18.9375 24 17 28 17 28 L 17 30 L 31 30 Z "/>
</g>
</svg>